<mxfile host="Electron" modified="2024-02-05T09:20:58.174Z" agent="Mozilla/5.0 (Windows NT 10.0; Win64; x64) AppleWebKit/537.36 (KHTML, like Gecko) draw.io/23.0.2 Chrome/120.0.6099.109 Electron/28.1.0 Safari/537.36" etag="yXJC-xWVVERxWSJE1IVC" version="23.0.2" type="device">
  <diagram id="C5RBs43oDa-KdzZeNtuy" name="Page-1">
    <mxGraphModel dx="834" dy="1676" grid="1" gridSize="10" guides="1" tooltips="1" connect="1" arrows="1" fold="1" page="1" pageScale="1" pageWidth="827" pageHeight="1169" math="0" shadow="0">
      <root>
        <mxCell id="WIyWlLk6GJQsqaUBKTNV-0" />
        <mxCell id="WIyWlLk6GJQsqaUBKTNV-1" parent="WIyWlLk6GJQsqaUBKTNV-0" />
        <mxCell id="H5nUSXMVWHrH7SrXMK3W-0" value="Start" style="ellipse;whiteSpace=wrap;html=1;" vertex="1" parent="WIyWlLk6GJQsqaUBKTNV-1">
          <mxGeometry x="354" width="120" height="80" as="geometry" />
        </mxCell>
        <mxCell id="H5nUSXMVWHrH7SrXMK3W-1" value="totalPlaytime +=&amp;nbsp;&lt;br&gt;timeSpent" style="rounded=0;whiteSpace=wrap;html=1;" vertex="1" parent="WIyWlLk6GJQsqaUBKTNV-1">
          <mxGeometry x="354" y="820" width="120" height="60" as="geometry" />
        </mxCell>
        <mxCell id="H5nUSXMVWHrH7SrXMK3W-2" value="While" style="rounded=1;whiteSpace=wrap;html=1;" vertex="1" parent="WIyWlLk6GJQsqaUBKTNV-1">
          <mxGeometry x="354" y="110" width="120" height="60" as="geometry" />
        </mxCell>
        <mxCell id="H5nUSXMVWHrH7SrXMK3W-3" value="" style="endArrow=classic;html=1;rounded=0;exitX=0.5;exitY=1;exitDx=0;exitDy=0;entryX=0.5;entryY=0;entryDx=0;entryDy=0;" edge="1" parent="WIyWlLk6GJQsqaUBKTNV-1" source="H5nUSXMVWHrH7SrXMK3W-0" target="H5nUSXMVWHrH7SrXMK3W-2">
          <mxGeometry width="50" height="50" relative="1" as="geometry">
            <mxPoint x="390" y="430" as="sourcePoint" />
            <mxPoint x="414" y="90" as="targetPoint" />
          </mxGeometry>
        </mxCell>
        <mxCell id="H5nUSXMVWHrH7SrXMK3W-4" value="games present in userInput" style="rhombus;whiteSpace=wrap;html=1;" vertex="1" parent="WIyWlLk6GJQsqaUBKTNV-1">
          <mxGeometry x="374" y="230" width="80" height="80" as="geometry" />
        </mxCell>
        <mxCell id="H5nUSXMVWHrH7SrXMK3W-5" value="" style="endArrow=classic;html=1;rounded=0;exitX=0.5;exitY=1;exitDx=0;exitDy=0;entryX=0.5;entryY=0;entryDx=0;entryDy=0;" edge="1" parent="WIyWlLk6GJQsqaUBKTNV-1" source="H5nUSXMVWHrH7SrXMK3W-2" target="H5nUSXMVWHrH7SrXMK3W-4">
          <mxGeometry width="50" height="50" relative="1" as="geometry">
            <mxPoint x="310" y="260" as="sourcePoint" />
            <mxPoint x="360" y="210" as="targetPoint" />
          </mxGeometry>
        </mxCell>
        <mxCell id="H5nUSXMVWHrH7SrXMK3W-6" value="" style="endArrow=classic;html=1;rounded=0;exitX=0.5;exitY=1;exitDx=0;exitDy=0;" edge="1" parent="WIyWlLk6GJQsqaUBKTNV-1" source="H5nUSXMVWHrH7SrXMK3W-4">
          <mxGeometry width="50" height="50" relative="1" as="geometry">
            <mxPoint x="390" y="430" as="sourcePoint" />
            <mxPoint x="414" y="360" as="targetPoint" />
          </mxGeometry>
        </mxCell>
        <mxCell id="H5nUSXMVWHrH7SrXMK3W-31" value="" style="edgeStyle=orthogonalEdgeStyle;rounded=0;orthogonalLoop=1;jettySize=auto;html=1;" edge="1" parent="WIyWlLk6GJQsqaUBKTNV-1" source="H5nUSXMVWHrH7SrXMK3W-7" target="H5nUSXMVWHrH7SrXMK3W-26">
          <mxGeometry relative="1" as="geometry" />
        </mxCell>
        <mxCell id="H5nUSXMVWHrH7SrXMK3W-7" value="End while" style="rounded=1;whiteSpace=wrap;html=1;" vertex="1" parent="WIyWlLk6GJQsqaUBKTNV-1">
          <mxGeometry x="354" y="900" width="120" height="60" as="geometry" />
        </mxCell>
        <mxCell id="H5nUSXMVWHrH7SrXMK3W-8" value="True" style="text;html=1;strokeColor=none;fillColor=none;align=center;verticalAlign=middle;whiteSpace=wrap;rounded=0;" vertex="1" parent="WIyWlLk6GJQsqaUBKTNV-1">
          <mxGeometry x="400" y="320" width="60" height="30" as="geometry" />
        </mxCell>
        <mxCell id="H5nUSXMVWHrH7SrXMK3W-9" value="" style="endArrow=classic;html=1;rounded=0;exitX=1;exitY=0.5;exitDx=0;exitDy=0;entryX=1;entryY=0.5;entryDx=0;entryDy=0;" edge="1" parent="WIyWlLk6GJQsqaUBKTNV-1" source="H5nUSXMVWHrH7SrXMK3W-4" target="H5nUSXMVWHrH7SrXMK3W-7">
          <mxGeometry width="50" height="50" relative="1" as="geometry">
            <mxPoint x="610" y="140" as="sourcePoint" />
            <mxPoint x="510" y="520" as="targetPoint" />
            <Array as="points">
              <mxPoint x="640" y="270" />
              <mxPoint x="640" y="930" />
            </Array>
          </mxGeometry>
        </mxCell>
        <mxCell id="H5nUSXMVWHrH7SrXMK3W-10" value="False" style="text;html=1;strokeColor=none;fillColor=none;align=center;verticalAlign=middle;whiteSpace=wrap;rounded=0;" vertex="1" parent="WIyWlLk6GJQsqaUBKTNV-1">
          <mxGeometry x="510" y="270" width="60" height="30" as="geometry" />
        </mxCell>
        <mxCell id="H5nUSXMVWHrH7SrXMK3W-11" value="Display &lt;br&gt;&quot;Enter name &lt;br&gt;of game&quot;" style="shape=parallelogram;html=1;strokeWidth=2;perimeter=parallelogramPerimeter;whiteSpace=wrap;rounded=1;arcSize=12;size=0.23;" vertex="1" parent="WIyWlLk6GJQsqaUBKTNV-1">
          <mxGeometry x="354" y="360" width="120" height="60" as="geometry" />
        </mxCell>
        <mxCell id="H5nUSXMVWHrH7SrXMK3W-21" style="edgeStyle=orthogonalEdgeStyle;rounded=0;orthogonalLoop=1;jettySize=auto;html=1;exitX=0.5;exitY=1;exitDx=0;exitDy=0;entryX=0.5;entryY=0;entryDx=0;entryDy=0;" edge="1" parent="WIyWlLk6GJQsqaUBKTNV-1" source="H5nUSXMVWHrH7SrXMK3W-12" target="H5nUSXMVWHrH7SrXMK3W-15">
          <mxGeometry relative="1" as="geometry" />
        </mxCell>
        <mxCell id="H5nUSXMVWHrH7SrXMK3W-12" value="titlePlayed =&amp;nbsp;&lt;br&gt;userInput" style="shape=parallelogram;html=1;strokeWidth=2;perimeter=parallelogramPerimeter;whiteSpace=wrap;rounded=1;arcSize=12;size=0.23;" vertex="1" parent="WIyWlLk6GJQsqaUBKTNV-1">
          <mxGeometry x="354" y="450" width="120" height="60" as="geometry" />
        </mxCell>
        <mxCell id="H5nUSXMVWHrH7SrXMK3W-14" value="" style="endArrow=classic;html=1;rounded=0;exitX=0.5;exitY=1;exitDx=0;exitDy=0;entryX=0.5;entryY=0;entryDx=0;entryDy=0;" edge="1" parent="WIyWlLk6GJQsqaUBKTNV-1" source="H5nUSXMVWHrH7SrXMK3W-11" target="H5nUSXMVWHrH7SrXMK3W-12">
          <mxGeometry width="50" height="50" relative="1" as="geometry">
            <mxPoint x="390" y="530" as="sourcePoint" />
            <mxPoint x="440" y="480" as="targetPoint" />
          </mxGeometry>
        </mxCell>
        <mxCell id="H5nUSXMVWHrH7SrXMK3W-15" value="Display &lt;br&gt;&quot;Enter playime&lt;br&gt;in minutes&quot;" style="shape=parallelogram;html=1;strokeWidth=2;perimeter=parallelogramPerimeter;whiteSpace=wrap;rounded=1;arcSize=12;size=0.23;" vertex="1" parent="WIyWlLk6GJQsqaUBKTNV-1">
          <mxGeometry x="354" y="540" width="120" height="60" as="geometry" />
        </mxCell>
        <mxCell id="H5nUSXMVWHrH7SrXMK3W-24" style="edgeStyle=orthogonalEdgeStyle;rounded=0;orthogonalLoop=1;jettySize=auto;html=1;exitX=0.5;exitY=1;exitDx=0;exitDy=0;entryX=0.5;entryY=0;entryDx=0;entryDy=0;" edge="1" parent="WIyWlLk6GJQsqaUBKTNV-1" source="H5nUSXMVWHrH7SrXMK3W-17" target="H5nUSXMVWHrH7SrXMK3W-23">
          <mxGeometry relative="1" as="geometry" />
        </mxCell>
        <mxCell id="H5nUSXMVWHrH7SrXMK3W-17" value="timeSpent =&amp;nbsp;&lt;br&gt;userInput parsed&lt;br&gt;for integers" style="shape=parallelogram;html=1;strokeWidth=2;perimeter=parallelogramPerimeter;whiteSpace=wrap;rounded=1;arcSize=12;size=0.23;" vertex="1" parent="WIyWlLk6GJQsqaUBKTNV-1">
          <mxGeometry x="342" y="640" width="144" height="60" as="geometry" />
        </mxCell>
        <mxCell id="H5nUSXMVWHrH7SrXMK3W-20" value="" style="endArrow=classic;html=1;rounded=0;exitX=0.5;exitY=1;exitDx=0;exitDy=0;entryX=0.5;entryY=0;entryDx=0;entryDy=0;" edge="1" parent="WIyWlLk6GJQsqaUBKTNV-1" source="H5nUSXMVWHrH7SrXMK3W-15" target="H5nUSXMVWHrH7SrXMK3W-17">
          <mxGeometry width="50" height="50" relative="1" as="geometry">
            <mxPoint x="390" y="530" as="sourcePoint" />
            <mxPoint x="440" y="480" as="targetPoint" />
          </mxGeometry>
        </mxCell>
        <mxCell id="H5nUSXMVWHrH7SrXMK3W-27" style="edgeStyle=orthogonalEdgeStyle;rounded=0;orthogonalLoop=1;jettySize=auto;html=1;exitX=0.5;exitY=1;exitDx=0;exitDy=0;entryX=0.5;entryY=0;entryDx=0;entryDy=0;" edge="1" parent="WIyWlLk6GJQsqaUBKTNV-1" source="H5nUSXMVWHrH7SrXMK3W-23" target="H5nUSXMVWHrH7SrXMK3W-1">
          <mxGeometry relative="1" as="geometry" />
        </mxCell>
        <mxCell id="H5nUSXMVWHrH7SrXMK3W-23" value="Display &lt;br&gt;&quot;You played &quot; +&amp;nbsp;&lt;br&gt;titlePlayed + &quot; for &quot; + &lt;br&gt;timeSpent + &quot; minutes.&quot;" style="shape=parallelogram;html=1;strokeWidth=2;perimeter=parallelogramPerimeter;whiteSpace=wrap;rounded=1;arcSize=12;size=0.23;" vertex="1" parent="WIyWlLk6GJQsqaUBKTNV-1">
          <mxGeometry x="299" y="740" width="230" height="60" as="geometry" />
        </mxCell>
        <mxCell id="H5nUSXMVWHrH7SrXMK3W-25" value="" style="endArrow=classic;html=1;rounded=0;entryX=0;entryY=0.5;entryDx=0;entryDy=0;exitX=0;exitY=0.5;exitDx=0;exitDy=0;" edge="1" parent="WIyWlLk6GJQsqaUBKTNV-1" source="H5nUSXMVWHrH7SrXMK3W-1" target="H5nUSXMVWHrH7SrXMK3W-4">
          <mxGeometry width="50" height="50" relative="1" as="geometry">
            <mxPoint x="310" y="850" as="sourcePoint" />
            <mxPoint x="350" y="280" as="targetPoint" />
            <Array as="points">
              <mxPoint x="240" y="850" />
              <mxPoint x="240" y="270" />
            </Array>
          </mxGeometry>
        </mxCell>
        <mxCell id="H5nUSXMVWHrH7SrXMK3W-29" style="edgeStyle=orthogonalEdgeStyle;rounded=0;orthogonalLoop=1;jettySize=auto;html=1;" edge="1" parent="WIyWlLk6GJQsqaUBKTNV-1" source="H5nUSXMVWHrH7SrXMK3W-26" target="H5nUSXMVWHrH7SrXMK3W-28">
          <mxGeometry relative="1" as="geometry" />
        </mxCell>
        <mxCell id="H5nUSXMVWHrH7SrXMK3W-26" value="Display&lt;br&gt;&quot;Total playtime: &quot;&lt;br&gt;+ totalPlaytime &lt;br&gt;+ &quot; minutes.&quot;" style="shape=parallelogram;html=1;strokeWidth=2;perimeter=parallelogramPerimeter;whiteSpace=wrap;rounded=1;arcSize=12;size=0.23;" vertex="1" parent="WIyWlLk6GJQsqaUBKTNV-1">
          <mxGeometry x="329" y="1000" width="170" height="60" as="geometry" />
        </mxCell>
        <mxCell id="H5nUSXMVWHrH7SrXMK3W-28" value="End" style="ellipse;whiteSpace=wrap;html=1;" vertex="1" parent="WIyWlLk6GJQsqaUBKTNV-1">
          <mxGeometry x="354" y="1089" width="120" height="80" as="geometry" />
        </mxCell>
      </root>
    </mxGraphModel>
  </diagram>
</mxfile>
